G04 Layer_Color=8388736*
%FSLAX25Y25*%
%MOIN*%
G70*
G01*
G75*
%ADD32R,0.24422X0.08674*%
%ADD33R,0.14579X0.08674*%
%ADD34R,0.04343X0.03556*%
%ADD35R,0.04147X0.02375*%
%ADD36R,0.03556X0.04343*%
%ADD37R,0.04737X0.04737*%
%ADD38R,0.04737X0.04737*%
%ADD39R,0.03950X0.03950*%
%ADD40R,0.03950X0.04343*%
%ADD41C,0.04934*%
%ADD42R,0.04737X0.04737*%
%ADD43C,0.06800*%
%ADD44C,0.03600*%
D32*
X312252Y372752D02*
D03*
Y388500D02*
D03*
X312252Y404248D02*
D03*
X242752Y326374D02*
D03*
Y310626D02*
D03*
Y402374D02*
D03*
Y386626D02*
D03*
X243252Y341252D02*
D03*
Y357000D02*
D03*
Y372748D02*
D03*
X311752Y309626D02*
D03*
Y325374D02*
D03*
D33*
X348669Y372752D02*
D03*
X348669Y388500D02*
D03*
X348669Y404248D02*
D03*
X279169Y326374D02*
D03*
Y310626D02*
D03*
Y402374D02*
D03*
Y386626D02*
D03*
X279669Y341252D02*
D03*
Y357000D02*
D03*
Y372748D02*
D03*
X348169Y309626D02*
D03*
Y325374D02*
D03*
D34*
X395000Y316453D02*
D03*
Y310547D02*
D03*
X321500Y348453D02*
D03*
Y342547D02*
D03*
X384500Y316453D02*
D03*
Y310547D02*
D03*
D35*
X330760Y348059D02*
D03*
Y345500D02*
D03*
Y342941D02*
D03*
X338240D02*
D03*
Y348059D02*
D03*
D36*
X366547Y379000D02*
D03*
X372453D02*
D03*
X366547Y373500D02*
D03*
X372453D02*
D03*
X310453Y353000D02*
D03*
X304547D02*
D03*
X310453Y345000D02*
D03*
X304547D02*
D03*
D37*
X393500Y355756D02*
D03*
Y350244D02*
D03*
Y361300D02*
D03*
X385500Y355756D02*
D03*
Y350244D02*
D03*
Y361300D02*
D03*
D38*
X390256Y388000D02*
D03*
X384744D02*
D03*
X390256Y401500D02*
D03*
X384744D02*
D03*
X389756Y325000D02*
D03*
X384244D02*
D03*
X395300D02*
D03*
D39*
X301000Y361500D02*
D03*
X306906D02*
D03*
X301000Y335500D02*
D03*
X306906D02*
D03*
D40*
X337756Y354000D02*
D03*
X332244D02*
D03*
D41*
X371000Y345000D02*
D03*
X366000D02*
D03*
X371000Y350000D02*
D03*
X366000D02*
D03*
X371000Y355000D02*
D03*
X366000D02*
D03*
X371000Y360000D02*
D03*
X366000D02*
D03*
X371000Y365000D02*
D03*
D42*
X366000D02*
D03*
D43*
X215500Y310000D02*
D03*
Y375000D02*
D03*
Y335000D02*
D03*
Y400000D02*
D03*
X368500Y317500D02*
D03*
Y392500D02*
D03*
X215500Y355000D02*
D03*
D44*
X227050Y340000D02*
D03*
X337500Y319000D02*
D03*
X327500Y365500D02*
D03*
X294000D02*
D03*
X327000Y345000D02*
D03*
X316000D02*
D03*
X326500Y339500D02*
D03*
X345000Y345000D02*
D03*
X353000Y341000D02*
D03*
Y345000D02*
D03*
X349000Y366500D02*
D03*
X353000Y365500D02*
D03*
X392500Y339000D02*
D03*
X289500Y345000D02*
D03*
X396000Y346000D02*
D03*
X291000Y319500D02*
D03*
M02*
