G04 Layer_Color=8421504*
%FSLAX25Y25*%
%MOIN*%
G70*
G01*
G75*
%ADD10R,0.23622X0.07874*%
%ADD11R,0.13780X0.07874*%
%ADD12R,0.03543X0.02756*%
%ADD13R,0.03347X0.01575*%
%ADD14R,0.02756X0.03543*%
%ADD15R,0.03937X0.03937*%
%ADD16R,0.03937X0.03937*%
%ADD17R,0.03150X0.03150*%
%ADD18R,0.03150X0.03543*%
D10*
X312252Y372752D02*
D03*
Y388500D02*
D03*
X312252Y404248D02*
D03*
X242752Y326374D02*
D03*
Y310626D02*
D03*
Y402374D02*
D03*
Y386626D02*
D03*
X243252Y341252D02*
D03*
Y357000D02*
D03*
Y372748D02*
D03*
X311752Y309626D02*
D03*
Y325374D02*
D03*
D11*
X348669Y372752D02*
D03*
X348669Y388500D02*
D03*
X348669Y404248D02*
D03*
X279169Y326374D02*
D03*
Y310626D02*
D03*
Y402374D02*
D03*
Y386626D02*
D03*
X279669Y341252D02*
D03*
Y357000D02*
D03*
Y372748D02*
D03*
X348169Y309626D02*
D03*
Y325374D02*
D03*
D12*
X395000Y316453D02*
D03*
Y310547D02*
D03*
X321500Y348453D02*
D03*
Y342547D02*
D03*
X384500Y316453D02*
D03*
Y310547D02*
D03*
D13*
X330760Y348059D02*
D03*
Y345500D02*
D03*
Y342941D02*
D03*
X338240D02*
D03*
Y348059D02*
D03*
D14*
X366547Y379000D02*
D03*
X372453D02*
D03*
X366547Y373500D02*
D03*
X372453D02*
D03*
X310453Y353000D02*
D03*
X304547D02*
D03*
X310453Y345000D02*
D03*
X304547D02*
D03*
D15*
X393500Y355756D02*
D03*
Y350244D02*
D03*
Y361300D02*
D03*
X385500Y355756D02*
D03*
Y350244D02*
D03*
Y361300D02*
D03*
D16*
X390256Y388000D02*
D03*
X384744D02*
D03*
X390256Y401500D02*
D03*
X384744D02*
D03*
X389756Y325000D02*
D03*
X384244D02*
D03*
X395300D02*
D03*
D17*
X301000Y361500D02*
D03*
X306906D02*
D03*
X301000Y335500D02*
D03*
X306906D02*
D03*
D18*
X337756Y354000D02*
D03*
X332244D02*
D03*
M02*
