G04 Layer_Color=32768*
%FSLAX25Y25*%
%MOIN*%
G70*
G01*
G75*
%ADD46C,0.00394*%
D46*
X392835Y318224D02*
X397165D01*
X392835Y308776D02*
X397165D01*
Y318224D01*
X392835Y308776D02*
Y318224D01*
X395000Y311630D02*
Y315370D01*
X393130Y313500D02*
X396870D01*
X319335Y350224D02*
X323665D01*
X319335Y340776D02*
X323665D01*
Y350224D01*
X319335Y340776D02*
Y350224D01*
X321500Y343630D02*
Y347370D01*
X319630Y345500D02*
X323370D01*
X328102Y340185D02*
Y350815D01*
X340898Y340185D02*
Y350815D01*
X328102D02*
X340898D01*
X328102Y340185D02*
X340898D01*
X332531Y345500D02*
X336469D01*
X334500Y343531D02*
Y347468D01*
X382335Y318224D02*
X386665D01*
X382335Y308776D02*
X386665D01*
Y318224D01*
X382335Y308776D02*
Y318224D01*
X384500Y311630D02*
Y315370D01*
X382630Y313500D02*
X386370D01*
X364776Y376835D02*
Y381165D01*
X374224Y376835D02*
Y381165D01*
X364776D02*
X374224D01*
X364776Y376835D02*
X374224D01*
X367630Y379000D02*
X371370D01*
X369500Y377130D02*
Y380870D01*
X364776Y371335D02*
Y375665D01*
X374224Y371335D02*
Y375665D01*
X364776D02*
X374224D01*
X364776Y371335D02*
X374224D01*
X367630Y373500D02*
X371370D01*
X369500Y371630D02*
Y375370D01*
X312224Y350835D02*
Y355165D01*
X302776Y350835D02*
Y355165D01*
Y350835D02*
X312224D01*
X302776Y355165D02*
X312224D01*
X305630Y353000D02*
X309370D01*
X307500Y351130D02*
Y354870D01*
X339724Y351835D02*
Y356165D01*
X330276Y351835D02*
Y356165D01*
Y351835D02*
X339724D01*
X330276Y356165D02*
X339724D01*
X333130Y354000D02*
X336870D01*
X335000Y352130D02*
Y355870D01*
X312224Y342835D02*
Y347165D01*
X302776Y342835D02*
Y347165D01*
Y342835D02*
X312224D01*
X302776Y347165D02*
X312224D01*
X305630Y345000D02*
X309370D01*
X307500Y343130D02*
Y346870D01*
M02*
