G04 Layer_Color=128*
%FSLAX25Y25*%
%MOIN*%
G70*
G01*
G75*
%ADD47C,0.00500*%
D47*
X369721Y345000D02*
X372280D01*
X371000Y343721D02*
Y346280D01*
X364721Y345000D02*
X367280D01*
X366000Y343721D02*
Y346280D01*
X369721Y350000D02*
X372280D01*
X371000Y348721D02*
Y351279D01*
X364721Y350000D02*
X367280D01*
X366000Y348721D02*
Y351279D01*
X369721Y355000D02*
X372280D01*
X371000Y353720D02*
Y356279D01*
X364721Y355000D02*
X367280D01*
X366000Y353720D02*
Y356279D01*
X369721Y360000D02*
X372280D01*
X371000Y358720D02*
Y361280D01*
X364721Y360000D02*
X367280D01*
X366000Y358720D02*
Y361280D01*
X369721Y365000D02*
X372280D01*
X371000Y363720D02*
Y366280D01*
X364721Y365000D02*
X367280D01*
X366000Y363720D02*
Y366280D01*
X209250Y310000D02*
X221750D01*
X215500Y303750D02*
Y316250D01*
X209250Y375000D02*
X221750D01*
X215500Y368750D02*
Y381250D01*
X209250Y335000D02*
X221750D01*
X215500Y328750D02*
Y341250D01*
X209250Y400000D02*
X221750D01*
X215500Y393750D02*
Y406250D01*
X362700Y317500D02*
X374300D01*
X368500Y311700D02*
Y323300D01*
X362700Y392500D02*
X374300D01*
X368500Y386700D02*
Y398300D01*
X205750Y355000D02*
X225250D01*
X215500Y345250D02*
Y364750D01*
X226350Y340000D02*
X227750D01*
X227050Y339300D02*
Y340700D01*
X336800Y319000D02*
X338200D01*
X337500Y318300D02*
Y319700D01*
X326800Y365500D02*
X328200D01*
X327500Y364800D02*
Y366200D01*
X293300Y365500D02*
X294700D01*
X294000Y364800D02*
Y366200D01*
X326300Y345000D02*
X327700D01*
X327000Y344300D02*
Y345700D01*
X315300Y345000D02*
X316700D01*
X316000Y344300D02*
Y345700D01*
X325800Y339500D02*
X327200D01*
X326500Y338800D02*
Y340200D01*
X344300Y345000D02*
X345700D01*
X345000Y344300D02*
Y345700D01*
X352300Y341000D02*
X353700D01*
X353000Y340300D02*
Y341700D01*
X352300Y345000D02*
X353700D01*
X353000Y344300D02*
Y345700D01*
X348300Y366500D02*
X349700D01*
X349000Y365800D02*
Y367200D01*
X352300Y365500D02*
X353700D01*
X353000Y364800D02*
Y366200D01*
X391800Y339000D02*
X393200D01*
X392500Y338300D02*
Y339700D01*
X288800Y345000D02*
X290200D01*
X289500Y344300D02*
Y345700D01*
X395300Y346000D02*
X396700D01*
X396000Y345300D02*
Y346700D01*
X290300Y319500D02*
X291700D01*
X291000Y318800D02*
Y320200D01*
M02*
