G04 Layer_Color=16711935*
%FSLAX25Y25*%
%MOIN*%
G70*
G01*
G75*
%ADD30C,0.01000*%
%ADD45C,0.00600*%
D30*
X152500Y303000D02*
X201500D01*
X152500Y410000D02*
X201000D01*
X153500Y303000D02*
Y334306D01*
Y375494D02*
Y410000D01*
Y303000D02*
X155500Y309000D01*
X151500D02*
X153500Y303000D01*
X151500Y404000D02*
X153500Y410000D01*
X155500Y404000D01*
X402500Y269500D02*
Y300000D01*
X202000Y269500D02*
Y300000D01*
X337239Y270500D02*
X402500D01*
X202000D02*
X264061D01*
X396500Y272500D02*
X402500Y270500D01*
X396500Y268500D02*
X402500Y270500D01*
X202000D02*
X208000Y268500D01*
X202000Y270500D02*
X208000Y272500D01*
D45*
X157099Y335906D02*
Y337906D01*
Y336906D01*
X151101D01*
X152101Y335906D01*
Y340904D02*
X151101Y341904D01*
Y343903D01*
X152101Y344903D01*
X156099D01*
X157099Y343903D01*
Y341904D01*
X156099Y340904D01*
X152101D01*
X151101Y346903D02*
Y350901D01*
X152101D01*
X156099Y346903D01*
X157099D01*
X152101Y352901D02*
X151101Y353900D01*
Y355900D01*
X152101Y356899D01*
X156099D01*
X157099Y355900D01*
Y353900D01*
X156099Y352901D01*
X152101D01*
X157099Y358899D02*
X156099D01*
Y359898D01*
X157099D01*
Y358899D01*
X152101Y363897D02*
X151101Y364897D01*
Y366896D01*
X152101Y367896D01*
X156099D01*
X157099Y366896D01*
Y364897D01*
X156099Y363897D01*
X152101D01*
Y369895D02*
X151101Y370895D01*
Y372894D01*
X152101Y373894D01*
X156099D01*
X157099Y372894D01*
Y370895D01*
X156099Y369895D01*
X152101D01*
X269660Y266901D02*
X265661D01*
X269660Y270900D01*
Y271899D01*
X268660Y272899D01*
X266661D01*
X265661Y271899D01*
X271659D02*
X272659Y272899D01*
X274658D01*
X275658Y271899D01*
Y267901D01*
X274658Y266901D01*
X272659D01*
X271659Y267901D01*
Y271899D01*
X277657D02*
X278657Y272899D01*
X280657D01*
X281656Y271899D01*
Y267901D01*
X280657Y266901D01*
X278657D01*
X277657Y267901D01*
Y271899D01*
X287654Y272899D02*
X283656D01*
Y269900D01*
X285655Y270900D01*
X286654D01*
X287654Y269900D01*
Y267901D01*
X286654Y266901D01*
X284655D01*
X283656Y267901D01*
X289654Y266901D02*
Y267901D01*
X290653D01*
Y266901D01*
X289654D01*
X294652Y271899D02*
X295652Y272899D01*
X297651D01*
X298651Y271899D01*
Y267901D01*
X297651Y266901D01*
X295652D01*
X294652Y267901D01*
Y271899D01*
X300650D02*
X301650Y272899D01*
X303649D01*
X304649Y271899D01*
Y267901D01*
X303649Y266901D01*
X301650D01*
X300650Y267901D01*
Y271899D01*
X314646Y266901D02*
X312646Y268900D01*
Y270900D01*
X314646Y272899D01*
X317645Y266901D02*
Y270900D01*
X318644D01*
X319644Y269900D01*
Y266901D01*
Y269900D01*
X320643Y270900D01*
X321643Y269900D01*
Y266901D01*
X323643D02*
X325642D01*
X324642D01*
Y270900D01*
X323643D01*
X328641Y266901D02*
X330640D01*
X329641D01*
Y272899D01*
X328641D01*
X333639Y266901D02*
X335639Y268900D01*
Y270900D01*
X333639Y272899D01*
M02*
