G04 Layer_Physical_Order=1*
G04 Layer_Color=255*
%FSLAX25Y25*%
%MOIN*%
G70*
G01*
G75*
%ADD10R,0.23622X0.07874*%
%ADD11R,0.13780X0.07874*%
%ADD12R,0.03543X0.02756*%
%ADD13R,0.03347X0.01575*%
%ADD14R,0.02756X0.03543*%
%ADD15R,0.03937X0.03937*%
%ADD16R,0.03937X0.03937*%
%ADD17R,0.03150X0.03150*%
%ADD18R,0.03150X0.03543*%
%ADD19C,0.02000*%
%ADD20C,0.01200*%
%ADD21C,0.04000*%
%ADD22C,0.00800*%
%ADD23C,0.02500*%
%ADD24C,0.04134*%
%ADD25R,0.03937X0.03937*%
%ADD26C,0.06000*%
%ADD27C,0.02800*%
D10*
X312252Y372752D02*
D03*
Y388500D02*
D03*
X312252Y404248D02*
D03*
X242752Y326374D02*
D03*
Y310626D02*
D03*
Y402374D02*
D03*
Y386626D02*
D03*
X243252Y341252D02*
D03*
Y357000D02*
D03*
Y372748D02*
D03*
X311752Y309626D02*
D03*
Y325374D02*
D03*
D11*
X348669Y372752D02*
D03*
X348669Y388500D02*
D03*
X348669Y404248D02*
D03*
X279169Y326374D02*
D03*
Y310626D02*
D03*
Y402374D02*
D03*
Y386626D02*
D03*
X279669Y341252D02*
D03*
Y357000D02*
D03*
Y372748D02*
D03*
X348169Y309626D02*
D03*
Y325374D02*
D03*
D12*
X395000Y316453D02*
D03*
Y310547D02*
D03*
X321500Y348453D02*
D03*
Y342547D02*
D03*
X384500Y316453D02*
D03*
Y310547D02*
D03*
D13*
X330760Y348059D02*
D03*
Y345500D02*
D03*
Y342941D02*
D03*
X338240D02*
D03*
Y348059D02*
D03*
D14*
X366547Y379000D02*
D03*
X372453D02*
D03*
X366547Y373500D02*
D03*
X372453D02*
D03*
X310453Y353000D02*
D03*
X304547D02*
D03*
X310453Y345000D02*
D03*
X304547D02*
D03*
D15*
X393500Y355756D02*
D03*
Y350244D02*
D03*
Y361300D02*
D03*
X385500Y355756D02*
D03*
Y350244D02*
D03*
Y361300D02*
D03*
D16*
X390256Y388000D02*
D03*
X384744D02*
D03*
X390256Y401500D02*
D03*
X384744D02*
D03*
X389756Y325000D02*
D03*
X384244D02*
D03*
X395300D02*
D03*
D17*
X301000Y361500D02*
D03*
X306906D02*
D03*
X301000Y335500D02*
D03*
X306906D02*
D03*
D18*
X337756Y354000D02*
D03*
X332244D02*
D03*
D19*
X394500Y369000D02*
X400000Y363500D01*
X367500Y369000D02*
X394500D01*
X366000Y367500D02*
X367500Y369000D01*
X343500Y335500D02*
Y337500D01*
X381200Y354100D02*
X382856Y355756D01*
X385500D01*
X381800Y365000D02*
X385000Y361800D01*
X371000Y365000D02*
X381800D01*
X337500Y329500D02*
X343500Y335500D01*
X337500Y319000D02*
Y329500D01*
X242752Y326374D02*
X279169D01*
X243252Y341252D02*
X279669D01*
X301000Y341453D02*
X304547Y345000D01*
X301000Y335500D02*
Y341453D01*
X243252Y357000D02*
X279669D01*
X242752Y386626D02*
X279169D01*
X318500Y348500D02*
X321500D01*
X316000Y346000D02*
X318500Y348500D01*
X316000Y345000D02*
Y346000D01*
X312252Y404248D02*
X346748D01*
X332244Y353620D02*
Y354000D01*
X385500Y361300D02*
X393500D01*
X366000Y365000D02*
Y367500D01*
X338240Y348059D02*
X341713Y344586D01*
Y339287D02*
Y344586D01*
Y339287D02*
X343500Y337500D01*
X381200Y337200D02*
Y354100D01*
X343500Y337500D02*
X348900Y332100D01*
X389500Y343500D02*
Y350244D01*
X385500D02*
X389500D01*
X393500D01*
X348169Y325374D02*
X357480D01*
X387000Y339000D02*
X392500D01*
X348900Y332100D02*
X360246D01*
X357480Y325374D02*
X361606Y329500D01*
X360246Y332100D02*
X360446Y332300D01*
X376300D01*
X381200Y337200D01*
X361606Y329500D02*
X377500D01*
X387000Y339000D01*
X279669Y357000D02*
X283500D01*
X289500Y351000D01*
Y345000D02*
Y351000D01*
X294000Y335000D02*
Y365500D01*
Y335000D02*
X300813Y328187D01*
X353000Y365500D02*
X357500D01*
X365000Y373000D01*
X366000D01*
X371000Y342500D02*
Y345000D01*
X369731Y341231D02*
X371000Y342500D01*
X355000Y345000D02*
X358769Y341231D01*
X352400Y345000D02*
X353000D01*
X345000D02*
Y346756D01*
X337756Y354000D02*
X345000Y346756D01*
X358769Y341231D02*
X369731D01*
X389500Y343500D02*
X390500Y342500D01*
X398500D01*
X400000Y344000D01*
Y363500D01*
X291000Y319500D02*
Y329921D01*
X279669Y341252D02*
X291000Y329921D01*
D20*
X387600Y329400D02*
X389756Y327244D01*
X383800Y361300D02*
X385500D01*
X385000Y361800D02*
X385500Y361300D01*
X330760Y321240D02*
X336000Y316000D01*
X389756Y325000D02*
Y327244D01*
X310399Y352899D02*
X310476Y352976D01*
X310453Y353000D02*
Y361953D01*
X327500Y365500D02*
X328000Y365000D01*
Y350819D02*
Y365000D01*
Y350819D02*
X330760Y348059D01*
X303626Y325374D02*
X311752D01*
X306906Y335500D02*
X322500D01*
X290187Y380313D02*
X296500Y374000D01*
X283874Y386626D02*
X290187Y380313D01*
X321500Y342547D02*
X321894Y342941D01*
X371000Y350000D02*
X373000D01*
X348669Y372752D02*
X352752D01*
X348669Y388500D02*
X364669Y404500D01*
X381744D02*
X384744Y401500D01*
X364669Y404500D02*
X381744D01*
X336500Y394000D02*
X346748Y404248D01*
X371000Y360000D02*
X374500D01*
X346748Y404248D02*
X348669D01*
X395300Y316753D02*
Y325000D01*
X384244Y316709D02*
Y325000D01*
X301000Y356547D02*
X304547Y353000D01*
X301000Y356547D02*
Y361500D01*
X304047Y345500D02*
X304547Y346000D01*
X310399Y351470D02*
Y352899D01*
X390256Y401500D02*
X394500Y397256D01*
X386000Y372000D02*
X394500Y380500D01*
Y397256D01*
X372453Y372000D02*
X386000D01*
X386500Y379000D02*
X390756Y383256D01*
Y388000D01*
X372453Y379000D02*
X386500D01*
X296500Y370000D02*
X300500Y366000D01*
X302406D02*
X306906Y361500D01*
X300500Y366000D02*
X302406D01*
X296500Y370000D02*
Y374000D01*
X279169Y386626D02*
X283874D01*
X310399Y351470D02*
X310453Y351416D01*
Y346000D02*
Y351416D01*
X372453Y372000D02*
X372453Y372000D01*
X372453Y379000D02*
X372453Y379000D01*
X379744Y382500D02*
X385244Y388000D01*
X310453Y361953D02*
X315500Y367000D01*
X324453D01*
X326453Y369000D01*
X340169Y380000D02*
X348669Y388500D01*
X340169Y368730D02*
X340200Y368760D01*
X330760Y348059D02*
X333122D01*
X373000Y350000D02*
X374800Y348200D01*
X336000Y316000D02*
X354328D01*
X326453Y369000D02*
X329000D01*
X340200Y368760D02*
Y372240D01*
X340169Y372270D02*
X340200Y372240D01*
X340169Y372270D02*
Y380000D01*
X333122Y348059D02*
X338240Y342941D01*
X330760Y342400D02*
Y342941D01*
X322500Y335500D02*
X326500Y339500D01*
Y320500D02*
Y339500D01*
X330760Y321240D02*
Y342400D01*
X321894Y342941D02*
X322435Y342400D01*
X331000Y370000D02*
Y375813D01*
X326500Y380313D02*
X331000Y375813D01*
X290187Y380313D02*
X326500D01*
X336500Y368172D02*
Y394000D01*
X359672Y345000D02*
X366000D01*
X336500Y368172D02*
X359672Y345000D01*
X340169Y367831D02*
Y368730D01*
Y367831D02*
X358000Y350000D01*
X366000D01*
X332244Y354000D02*
X338185Y348059D01*
X338240D01*
X354328Y316000D02*
X357500Y319172D01*
X393500Y360800D02*
X394000D01*
X352752Y372752D02*
X362500Y382500D01*
X379744D01*
X329000Y369000D02*
X348000Y350000D01*
X331000Y370000D02*
X350000Y351000D01*
X348000Y338500D02*
Y350000D01*
X350000Y339672D02*
Y351000D01*
X374800Y342300D02*
Y348200D01*
X348000Y338500D02*
X352000Y334500D01*
X350000Y339672D02*
X353172Y336500D01*
X343709Y367791D02*
X356500Y355000D01*
X366000D01*
X343709Y367791D02*
Y369709D01*
X346752Y372752D01*
X348669D01*
X354500Y360000D02*
X366000D01*
X349000Y365500D02*
X354500Y360000D01*
X348500Y366000D02*
X349000Y366500D01*
Y365500D02*
Y366500D01*
X366000Y373000D02*
X366547D01*
X393500Y355756D02*
X394744D01*
X381400Y329400D02*
X387600D01*
X357500Y319172D02*
Y322000D01*
X352000Y334500D02*
X359252D01*
X353172Y336500D02*
X358424D01*
X359252Y334500D02*
X359452Y334700D01*
X358424Y336500D02*
X358624Y336700D01*
X371200Y338700D02*
X374800Y342300D01*
X358624Y336700D02*
X372700D01*
X376800Y340800D01*
X359452Y334700D02*
X374200D01*
X378800Y339300D01*
X357500Y322000D02*
X362500Y327000D01*
X379000D01*
X381400Y329400D01*
X300813Y328187D02*
X303626Y325374D01*
X366547Y373000D02*
Y379000D01*
X353000Y341000D02*
X355300Y338700D01*
X371200D01*
X396500Y345500D02*
X397500Y346500D01*
Y353000D01*
X394744Y355756D02*
X397500Y353000D01*
X374500Y360000D02*
X376800Y357700D01*
Y340800D02*
Y357700D01*
X378800Y339300D02*
Y356300D01*
X383800Y361300D01*
X322000Y316000D02*
X326500Y320500D01*
X279169Y326374D02*
X289543Y316000D01*
X322000D01*
D21*
X347169Y310626D02*
X348169Y309626D01*
X242752Y402374D02*
X279169D01*
X229874Y310626D02*
X242752D01*
X279169D01*
X243252Y372748D02*
X279669D01*
X279169Y310626D02*
X347169D01*
X384500Y310547D02*
X395000D01*
X348169Y309626D02*
X357674D01*
X228000Y312500D02*
X229874Y310626D01*
X228000Y312500D02*
Y349752D01*
X228050Y349802D01*
Y360198D01*
X228000Y360248D02*
X228050Y360198D01*
X232374Y402374D02*
X242752D01*
X228000Y398000D02*
X232374Y402374D01*
X228000Y372748D02*
Y398000D01*
Y360248D02*
Y372748D01*
X243252D01*
X357674Y309626D02*
X360800Y306500D01*
X380453D01*
X384500Y310547D01*
D22*
X322435Y342400D02*
X330760D01*
D23*
X353000Y345000D02*
X355000D01*
D24*
X371000D02*
D03*
X366000D02*
D03*
X371000Y350000D02*
D03*
X366000D02*
D03*
X371000Y355000D02*
D03*
X366000D02*
D03*
X371000Y360000D02*
D03*
X366000D02*
D03*
X371000Y365000D02*
D03*
D25*
X366000D02*
D03*
D26*
X215500Y310000D02*
D03*
Y375000D02*
D03*
Y335000D02*
D03*
Y400000D02*
D03*
X368500Y317500D02*
D03*
Y392500D02*
D03*
X215500Y355000D02*
D03*
D27*
X227050Y340000D02*
D03*
X337500Y319000D02*
D03*
X327500Y365500D02*
D03*
X294000D02*
D03*
X327000Y345000D02*
D03*
X316000D02*
D03*
X326500Y339500D02*
D03*
X345000Y345000D02*
D03*
X353000Y341000D02*
D03*
Y345000D02*
D03*
X349000Y366500D02*
D03*
X353000Y365500D02*
D03*
X392500Y339000D02*
D03*
X289500Y345000D02*
D03*
X396000Y346000D02*
D03*
X291000Y319500D02*
D03*
M02*
