M48
;Layer_Color=9474304
;FILE_FORMAT=2:5
INCH,LZ
;TYPE=PLATED
T1F00S00C0.01400
T2F00S00C0.02559
;TYPE=NON_PLATED
T3F00S00C0.11600
T4F00S00C0.12500
T5F00S00C0.19500
%
T01
X022705Y034
X02895Y0345
X0294Y03655
X0291Y03195
X03375Y0319
X03265Y03395
X0327Y0345
X0316
X0345
X0353
Y0341
Y03655
X0349Y03665
X03275Y03655
X0396Y0346
X03925Y0339
T02
X0366Y0345
X0371
Y035
X0366
Y0355
X0371
Y036
X0366
Y0365
X0371
T03
X03685Y03175
Y03925
T04
X02155Y031
Y0335
Y0375
Y04
T05
X02155Y0355
M30
